<?xml version="1.0" encoding="UTF-8" standalone="no"?>
<!DOCTYPE svg PUBLIC "-//W3C//DTD SVG 1.1//EN" "http://www.w3.org/Graphics/SVG/1.1/DTD/svg11.dtd">
<!-- 由 Microsoft Visio, SVG Export 生成 figure.svg 页-1 -->
<svg xmlns="http://www.w3.org/2000/svg" xmlns:xlink="http://www.w3.org/1999/xlink" xmlns:ev="http://www.w3.org/2001/xml-events"
		xmlns:v="http://schemas.microsoft.com/visio/2003/SVGExtensions/" width="11.1906in" height="4.24502in"
		viewBox="0 0 805.726 305.642" xml:space="preserve" color-interpolation-filters="sRGB" class="st29">
	<v:documentProperties v:langID="2052" v:metric="true" v:viewMarkup="false"/>

	<style type="text/css">
	<![CDATA[
		.st1 {marker-end:url(#mrkr13-11);stroke:url(#grad0-3);stroke-linecap:round;stroke-linejoin:round;stroke-width:3}
		.st2 {fill:#000000;fill-opacity:1;stroke:#000000;stroke-opacity:1;stroke-width:0.54347826086957}
		.st3 {marker-end:url(#mrkr13-11);stroke:url(#grad0-14);stroke-linecap:round;stroke-linejoin:round;stroke-width:3}
		.st4 {marker-end:url(#mrkr13-11);stroke:url(#grad0-22);stroke-linecap:round;stroke-linejoin:round;stroke-width:3}
		.st5 {marker-end:url(#mrkr13-11);stroke:url(#grad0-30);stroke-linecap:round;stroke-linejoin:round;stroke-width:3}
		.st6 {fill:#3498db;stroke:none;stroke-linecap:butt;stroke-width:1.19531}
		.st7 {fill:#ffffff;stroke:#3498db;stroke-linecap:round;stroke-linejoin:round;stroke-width:2.25}
		.st8 {fill:#3498db;font-family:Symbol;font-size:1.00001em}
		.st9 {font-size:1em}
		.st10 {font-family:Times New Roman;font-size:1em}
		.st11 {fill:#3498db;stroke:#3498db;stroke-linecap:round;stroke-linejoin:round;stroke-width:1.5}
		.st12 {fill:#ffffff;font-family:Times New Roman;font-size:1.16666em;font-weight:bold}
		.st13 {fill:#2ecc71;stroke:none;stroke-linecap:butt;stroke-width:1.19531}
		.st14 {fill:#ffffff;stroke:#2ecc71;stroke-linecap:round;stroke-linejoin:round;stroke-width:2.25}
		.st15 {fill:#2ecc71;font-family:Symbol;font-size:1.00001em}
		.st16 {fill:#2ecc71;stroke:#2ecc71;stroke-linecap:round;stroke-linejoin:round;stroke-width:1.5}
		.st17 {fill:#9b59b6;stroke:none;stroke-linecap:butt;stroke-width:0.75}
		.st18 {fill:#ffffff;stroke:#9b59b6;stroke-linecap:round;stroke-linejoin:round;stroke-width:2.25}
		.st19 {fill:#9b59b6;font-family:Symbol;font-size:1.00001em}
		.st20 {fill:#9b59b6;stroke:#9b59b6;stroke-linecap:round;stroke-linejoin:round;stroke-width:1.5}
		.st21 {fill:#f1c40f;stroke:none;stroke-linecap:butt;stroke-width:11.1273}
		.st22 {fill:#f1c40f;stroke:#f1c40f;stroke-linecap:round;stroke-linejoin:round;stroke-width:1.5}
		.st23 {fill:none;stroke:none;stroke-linecap:round;stroke-linejoin:round;stroke-width:0.75}
		.st24 {fill:#d35400;font-family:Times New Roman;font-size:1.99999em;font-weight:bold}
		.st25 {fill:none;stroke:#e74c3c;stroke-linecap:round;stroke-linejoin:round;stroke-width:2.25}
		.st26 {fill:#e74c3c;font-family:Symbol;font-size:1.00001em}
		.st27 {fill:#e74c3c;stroke:#e74c3c;stroke-linecap:round;stroke-linejoin:round;stroke-width:1.5}
		.st28 {fill:#e74c3c;stroke:none;stroke-linecap:butt;stroke-width:0.75}
		.st29 {fill:none;fill-rule:evenodd;font-size:12px;overflow:visible;stroke-linecap:square;stroke-miterlimit:3}
	]]>
	</style>

	<defs id="Patterns_And_Gradients">
		<linearGradient id="grad0-7" x1="0" y1="0" x2="1" y2="0" gradientTransform="rotate(90 0.5 0.5)">
			<stop offset="0" stop-color="#3498db" stop-opacity="1"/>
			<stop offset="1" stop-color="#2ecc71" stop-opacity="1"/>
		</linearGradient>
		<linearGradient id="grad0-3" x1="0" y1="0" x2="1" y2="0" gradientTransform="rotate(0 0.5 0.5)">
			<stop offset="0" stop-color="#3498db" stop-opacity="1"/>
			<stop offset="1" stop-color="#2ecc71" stop-opacity="1"/>
		</linearGradient>
		<linearGradient id="grad0-14" x1="0" y1="0" x2="1" y2="0" gradientTransform="rotate(0 0.5 0.5)">
			<stop offset="0" stop-color="#2ecc71" stop-opacity="1"/>
			<stop offset="1" stop-color="#9b59b6" stop-opacity="1"/>
		</linearGradient>
		<linearGradient id="grad0-22" x1="0" y1="0" x2="1" y2="0" gradientTransform="rotate(0 0.5 0.5)">
			<stop offset="0" stop-color="#9b59b6" stop-opacity="1"/>
			<stop offset="1" stop-color="#f1c40f" stop-opacity="1"/>
		</linearGradient>
		<linearGradient id="grad0-30" x1="0" y1="0" x2="1" y2="0" gradientTransform="rotate(0 0.5 0.5)">
			<stop offset="0" stop-color="#f1c40f" stop-opacity="1"/>
			<stop offset="1" stop-color="#e74c3c" stop-opacity="1"/>
		</linearGradient>
	</defs>
	<defs id="Markers">
		<g id="lend13">
			<path d="M 3 1 L 0 0 L 3 -1 L 3 1 " style="stroke:none"/>
		</g>
		<marker id="mrkr13-11" class="st2" v:arrowType="13" v:arrowSize="2" v:setback="5.4" refX="-5.4" orient="auto"
				markerUnits="strokeWidth" overflow="visible">
			<use xlink:href="#lend13" transform="scale(-1.84,-1.84) "/>
		</marker>
	</defs>
	<g v:mID="0" v:index="1" v:groupContext="foregroundPage">
		<title>页-1</title>
		<v:pageProperties v:drawingScale="0.0393701" v:pageScale="0.0393701" v:drawingUnits="24" v:shadowOffsetX="9"
				v:shadowOffsetY="-9"/>
		<g id="shape169-1" v:mID="169" v:groupContext="shape" transform="translate(74.4505,-17.959)">
			<title>工作表.169</title>
			<path d="M-0 263.12 A82.3863 46.3604 180 0 0 157.33 278.19 L157.48 277.86" class="st1"/>
		</g>
		<g id="shape170-12" v:mID="170" v:groupContext="shape" transform="translate(238.657,-17.959)">
			<title>工作表.170</title>
			<path d="M0 263.12 A82.3863 46.3604 180 0 0 157.33 278.19 L157.48 277.86" class="st3"/>
		</g>
		<g id="shape171-20" v:mID="171" v:groupContext="shape" transform="translate(402.863,-17.959)">
			<title>工作表.171</title>
			<path d="M-0 263.12 A82.3863 46.3604 180 0 0 157.33 278.19 L157.48 277.86" class="st4"/>
		</g>
		<g id="shape172-28" v:mID="172" v:groupContext="shape" transform="translate(568.675,-17.954) rotate(0.349788)">
			<title>工作表.172</title>
			<path d="M0 263.12 A82.3878 46.3604 180 0 0 157.33 278.19 L157.48 277.86" class="st5"/>
		</g>
		<g id="group195-36" transform="translate(0.749759,-60.4786)" v:mID="195" v:groupContext="group">
			<title>工作表.195</title>
			<g id="group88-37" transform="translate(37.0205,-116.619)" v:mID="88" v:groupContext="group">
				<title>工作表.88</title>
				<g id="shape89-38" v:mID="89" v:groupContext="shape">
					<title>工作表.89</title>
					<path d="M73.13 296.57 L68.68 291.01 L68.68 262.13 C68.68 259.1 66.05 256.64 62.82 256.64 L51.51 256.64 C50.86
								 256.64 50.34 257.13 50.34 257.74 C50.34 258.34 50.86 258.83 51.51 258.83 L62.82 258.83 C64.76 258.83
								 66.34 260.31 66.34 262.13 L66.34 290.28 L5.85 290.28 C5.48 290.28 5.14 290.45 4.92 290.72 L0.23
								 296.57 C0.08 296.76 0 296.99 0 297.23 L0 300.16 C0 303.18 2.63 305.64 5.85 305.64 L67.51 305.64
								 C70.73 305.64 73.36 303.18 73.36 300.16 L73.36 297.23 C73.36 296.99 73.28 296.76 73.13 296.57 ZM6.44
								 292.48 L66.92 292.48 L69.85 296.13 L3.51 296.13 L6.44 292.48 ZM71.02 300.16 C71.02 301.97 69.44
								 303.45 67.51 303.45 L5.85 303.45 C3.92 303.45 2.34 301.97 2.34 300.16 L2.34 298.33 L35.51 298.33
								 L35.51 300.16 C35.51 300.76 36.03 301.25 36.68 301.25 C37.33 301.25 37.85 300.76 37.85 300.16 L37.85
								 298.33 L71.02 298.33 L71.02 300.16 Z" class="st6"/>
				</g>
				<g id="shape90-40" v:mID="90" v:groupContext="shape" transform="translate(4.68261,-17.5529)">
					<title>工作表.90</title>
					<path d="M17.17 274.19 L5.85 274.19 C2.63 274.19 0 276.65 0 279.68 L0 304.54 C0 305.15 0.52 305.64 1.17 305.64
								 C1.82 305.64 2.34 305.15 2.34 304.54 L2.34 279.68 C2.34 277.86 3.92 276.39 5.85 276.39 L17.17 276.39
								 C17.82 276.39 18.34 275.9 18.34 275.29 C18.34 274.68 17.82 274.19 17.17 274.19 Z" class="st6"/>
				</g>
				<g id="shape91-42" v:mID="91" v:groupContext="shape" transform="translate(19.0286,-27.0607)">
					<title>工作表.91</title>
					<path d="M35.12 288.77 C34.94 288.36 34.51 288.09 34.04 288.09 L28.97 288.09 L28.97 265.05 C28.97 264.44 28.44
								 263.95 27.8 263.95 L7.51 263.95 C6.86 263.95 6.34 264.44 6.34 265.05 L6.34 288.09 L1.26 288.09 C0.79
								 288.09 0.36 288.36 0.18 288.77 C0 289.18 0.1 289.65 0.43 289.96 L16.82 305.32 C17.05 305.53 17.35
								 305.64 17.65 305.64 C17.95 305.64 18.25 305.53 18.48 305.32 L34.87 289.96 C35.2 289.65 35.3 289.18
								 35.12 288.77 ZM17.65 302.99 L4.09 290.28 L7.51 290.28 C8.15 290.28 8.68 289.79 8.68 289.19 L8.68
								 266.15 L26.63 266.15 L26.63 289.19 C26.63 289.79 27.15 290.28 27.8 290.28 L31.21 290.28 L17.65 302.99
								 Z" class="st6"/>
				</g>
				<g id="shape92-44" v:mID="92" v:groupContext="shape" transform="translate(35.5097,-54.4869)">
					<title>工作表.92</title>
					<ellipse cx="1.17062" cy="304.545" rx="1.17062" ry="1.09702" class="st6"/>
				</g>
				<g id="shape93-46" v:mID="93" v:groupContext="shape" transform="translate(30.0466,-54.4869)">
					<title>工作表.93</title>
					<ellipse cx="1.17062" cy="304.545" rx="1.17062" ry="1.09702" class="st6"/>
				</g>
				<g id="shape94-48" v:mID="94" v:groupContext="shape" transform="translate(40.9727,-54.4869)">
					<title>工作表.94</title>
					<ellipse cx="1.17062" cy="304.545" rx="1.17062" ry="1.09702" class="st6"/>
				</g>
			</g>
			<g id="shape161-50" v:mID="161" v:groupContext="shape" transform="translate(8.31642,-38.5462)">
				<title>圆角矩形</title>
				<desc>CeRNA Expression MicroRNA Expression CeRNA Information</desc>
				<v:userDefs>
					<v:ud v:nameU="CTypeTopLeftSnip" v:prompt="" v:val="VT0(0):5"/>
					<v:ud v:nameU="CTypeTopRightSnip" v:prompt="" v:val="VT0(0):5"/>
					<v:ud v:nameU="CTypeBotLeftSnip" v:prompt="" v:val="VT0(0):5"/>
					<v:ud v:nameU="CTypeBotRightSnip" v:prompt="" v:val="VT0(0):5"/>
					<v:ud v:nameU="CornerLockHoriz" v:prompt="" v:val="VT0(1):5"/>
					<v:ud v:nameU="CornerLockVert" v:prompt="" v:val="VT0(1):5"/>
					<v:ud v:nameU="CornerLockDiag" v:prompt="" v:val="VT0(0):5"/>
					<v:ud v:nameU="TopLeftOffset" v:prompt="" v:val="VT0(0.15748031496063):24"/>
					<v:ud v:nameU="TopRightOffset" v:prompt="" v:val="VT0(0.15748031496063):24"/>
					<v:ud v:nameU="BotLeftOffset" v:prompt="" v:val="VT0(0.15748031496063):24"/>
					<v:ud v:nameU="BotRightOffset" v:prompt="" v:val="VT0(0.15748031496063):24"/>
					<v:ud v:nameU="visVersion" v:prompt="" v:val="VT0(15):26"/>
					<v:ud v:nameU="TopLeftOffset" v:prompt="" v:val="VT0(0.1816232327528):1"/>
					<v:ud v:nameU="TopRightOffset" v:prompt="" v:val="VT0(0.1816232327528):1"/>
					<v:ud v:nameU="BotLeftOffset" v:prompt="" v:val="VT0(0.1816232327528):1"/>
					<v:ud v:nameU="BotRightOffset" v:prompt="" v:val="VT0(0.1816232327528):1"/>
				</v:userDefs>
				<v:textBlock v:margins="rect(4,4,4,4)" v:tabSpace="11.3386"/>
				<v:textRect cx="65.3844" cy="271.267" width="130.77" height="68.7486"/>
				<path d="M13.08 305.64 L117.69 305.64 A13.0767 13.0767 -180 0 0 130.77 292.56 L130.77 249.97 A13.0767 13.0767 -180
							 0 0 117.69 236.89 L13.08 236.89 A13.0767 13.0767 -180 0 0 -0 249.97 L0 292.56 A13.0767 13.0767 -180
							 0 0 13.08 305.64 Z" class="st7"/>
				<text x="4" y="260.47" class="st8" v:langID="2052"><v:paragraph v:indentFirst="-18" v:indentLeft="18" v:bullet="1"/><v:tabList/><tspan
							class="st9" v:isBullet="true">·</tspan> <tspan class="st10">CeRNA Expression<v:newlineChar/></tspan><tspan
							x="4" dy="1.2em" class="st9" v:isBullet="true">·</tspan> <tspan class="st10">MicroRNA Expression<v:newlineChar/></tspan><tspan
							x="4" dy="1.2em" class="st9" v:isBullet="true">·</tspan> <tspan class="st10">CeRNA Information</tspan></text>			</g>
			<g id="shape111-59" v:mID="111" v:groupContext="shape">
				<title>圆角矩形.111</title>
				<desc>Data Input</desc>
				<v:userDefs>
					<v:ud v:nameU="CTypeTopLeftSnip" v:prompt="" v:val="VT0(0):5"/>
					<v:ud v:nameU="CTypeTopRightSnip" v:prompt="" v:val="VT0(0):5"/>
					<v:ud v:nameU="CTypeBotLeftSnip" v:prompt="" v:val="VT0(0):5"/>
					<v:ud v:nameU="CTypeBotRightSnip" v:prompt="" v:val="VT0(0):5"/>
					<v:ud v:nameU="CornerLockHoriz" v:prompt="" v:val="VT0(1):5"/>
					<v:ud v:nameU="CornerLockVert" v:prompt="" v:val="VT0(1):5"/>
					<v:ud v:nameU="CornerLockDiag" v:prompt="" v:val="VT0(0):5"/>
					<v:ud v:nameU="TopLeftOffset" v:prompt="" v:val="VT0(0.15748031496063):24"/>
					<v:ud v:nameU="TopRightOffset" v:prompt="" v:val="VT0(0.15748031496063):24"/>
					<v:ud v:nameU="BotLeftOffset" v:prompt="" v:val="VT0(0.15748031496063):24"/>
					<v:ud v:nameU="BotRightOffset" v:prompt="" v:val="VT0(0.15748031496063):24"/>
					<v:ud v:nameU="visVersion" v:prompt="" v:val="VT0(15):26"/>
					<v:ud v:nameU="TopLeftOffset" v:prompt="" v:val="VT0(0.20472440944882):1"/>
					<v:ud v:nameU="TopRightOffset" v:prompt="" v:val="VT0(0.20472440944882):1"/>
					<v:ud v:nameU="BotLeftOffset" v:prompt="" v:val="VT0(0.20472440944882):1"/>
					<v:ud v:nameU="BotRightOffset" v:prompt="" v:val="VT0(0.20472440944882):1"/>
				</v:userDefs>
				<v:textBlock v:margins="rect(4,4,4,4)" v:tabSpace="42.5197"/>
				<v:textRect cx="73.7008" cy="284.382" width="147.41" height="42.5197"/>
				<path d="M14.74 305.64 L132.66 305.64 A14.7399 14.7399 -180 0 0 147.4 290.9 L147.4 277.86 A14.7399 14.7399 -180 0
							 0 132.66 263.12 L14.74 263.12 A14.7399 14.7399 -180 0 0 0 277.86 L0 290.9 A14.7399 14.7399 -180 0 0
							 14.74 305.64 Z" class="st11"/>
				<text x="40.83" y="288.58" class="st12" v:langID="2052"><v:paragraph v:horizAlign="1"/><v:tabList/>Data Input</text>			</g>
		</g>
		<g id="group196-62" transform="translate(164.956,-60.4786)" v:mID="196" v:groupContext="group">
			<title>工作表.196</title>
			<g id="group80-63" transform="translate(37.0205,-116.619)" v:mID="80" v:groupContext="group">
				<title>工作表.80</title>
				<g id="group81-64" v:mID="81" v:groupContext="group">
					<title>工作表.81</title>
					<g id="shape82-65" v:mID="82" v:groupContext="shape" transform="translate(0,-15.9205)">
						<title>工作表.82</title>
						<path d="M37.65 295.41 C37.38 294.87 36.69 294.63 36.11 294.89 C35.17 295.31 34.18 295.65 33.18 295.92 C32.76
									 296.03 32.44 296.35 32.36 296.75 L31.13 302.49 C31.01 303.06 30.47 303.47 29.86 303.47 L26.51
									 303.47 C25.9 303.47 25.36 303.06 25.24 302.49 L24.02 296.75 C23.93 296.35 23.61 296.03 23.19
									 295.92 C21.77 295.55 20.41 295.01 19.12 294.34 C18.74 294.14 18.28 294.15 17.91 294.38 L12.71
									 297.63 C12.2 297.95 11.51 297.89 11.08 297.48 L8.71 295.26 C8.28 294.85 8.21 294.21 8.55 293.73
									 L12.02 288.85 C12.26 288.51 12.27 288.08 12.06 287.72 C11.34 286.52 10.77 285.24 10.38 283.91
									 C10.26 283.51 9.91 283.21 9.49 283.13 L3.36 281.99 C2.76 281.87 2.32 281.37 2.32 280.79 L2.32
									 277.66 C2.32 277.08 2.76 276.58 3.36 276.47 L9.49 275.32 C9.91 275.24 10.26 274.94 10.38 274.55
									 C10.77 273.22 11.34 271.94 12.06 270.73 C12.27 270.38 12.26 269.94 12.02 269.6 L8.55 264.73
									 C8.21 264.25 8.28 263.6 8.71 263.19 L11.08 260.98 C11.51 260.57 12.2 260.5 12.71 260.83 L17.91
									 264.07 C18.28 264.3 18.74 264.32 19.12 264.12 C20.41 263.44 21.77 262.91 23.19 262.54 C23.61
									 262.43 23.93 262.1 24.02 261.7 L25.24 255.96 C25.36 255.4 25.9 254.98 26.51 254.98 L29.86 254.98
									 C30.47 254.98 31.01 255.4 31.13 255.96 L32.36 261.7 C32.44 262.1 32.76 262.43 33.18 262.54 C34.6
									 262.91 35.97 263.44 37.25 264.12 C37.63 264.32 38.1 264.3 38.46 264.07 L43.66 260.83 C44.17
									 260.5 44.86 260.57 45.3 260.98 L47.66 263.19 C48.1 263.6 48.16 264.25 47.82 264.73 L44.36 269.6
									 C44.11 269.94 44.1 270.38 44.31 270.74 C45.03 271.94 45.6 273.22 46 274.55 C46.11 274.94 46.46
									 275.24 46.89 275.32 L53.01 276.47 C53.62 276.58 54.06 277.08 54.06 277.66 L54.06 280.79 C54.06
									 281.37 53.62 281.87 53.01 281.99 L46.89 283.14 C46.46 283.22 46.11 283.51 46 283.91 C45.71 284.87
									 45.33 285.82 44.87 286.72 C44.59 287.26 44.83 287.91 45.41 288.17 C45.99 288.43 46.68 288.2
									 46.96 287.66 C47.37 286.84 47.73 286 48.02 285.14 L53.47 284.12 C55.15 283.8 56.37 282.4 56.37
									 280.79 L56.37 277.66 C56.37 276.05 55.15 274.65 53.47 274.34 L48.02 273.32 C47.67 272.27 47.21
									 271.24 46.67 270.26 L49.75 265.93 C50.7 264.59 50.51 262.8 49.3 261.66 L46.93 259.44 C45.72
									 258.3 43.8 258.13 42.37 259.02 L37.75 261.9 C36.71 261.4 35.61 260.97 34.49 260.64 L33.4 255.54
									 C33.07 253.96 31.57 252.81 29.86 252.81 L26.51 252.81 C24.8 252.81 23.31 253.96 22.97 255.54
									 L21.88 260.64 C20.76 260.97 19.66 261.4 18.62 261.91 L14 259.02 C12.57 258.13 10.65 258.3 9.44
									 259.44 L7.07 261.66 C5.86 262.8 5.67 264.59 6.62 265.93 L9.7 270.26 C9.16 271.24 8.71 272.27
									 8.35 273.32 L2.91 274.34 C1.22 274.65 0 276.05 0 277.66 L0 280.79 C0 282.4 1.22 283.8 2.91 284.12
									 L8.35 285.14 C8.71 286.19 9.16 287.21 9.7 288.19 L6.62 292.52 C5.67 293.86 5.86 295.66 7.07
									 296.8 L9.44 299.01 C10.65 300.15 12.57 300.33 14 299.44 L18.62 296.55 C19.66 297.06 20.76 297.48
									 21.88 297.82 L22.97 302.92 C23.31 304.5 24.8 305.64 26.51 305.64 L29.86 305.64 C31.57 305.64
									 33.07 304.5 33.4 302.92 L34.49 297.82 C35.38 297.55 36.26 297.23 37.1 296.85 C37.68 296.6 37.93
									 295.95 37.65 295.41 Z" class="st13"/>
					</g>
					<g id="shape83-67" v:mID="83" v:groupContext="shape" transform="translate(18.63,-36.1831)">
						<title>工作表.83</title>
						<path d="M19.59 305.52 C19.76 305.6 19.94 305.64 20.12 305.64 C20.54 305.64 20.94 305.43 21.15 305.05 C22.08
									 303.34 22.58 301.42 22.58 299.49 C22.58 292.76 16.74 287.29 9.56 287.29 C6.14 287.29 2.91 288.52
									 0.47 290.75 C0.01 291.17 0 291.86 0.45 292.29 C0.89 292.72 1.63 292.73 2.08 292.31 C4.09 290.47
									 6.75 289.46 9.56 289.46 C15.46 289.46 20.26 293.96 20.26 299.49 C20.26 301.1 19.86 302.64 19.09
									 304.06 C18.79 304.59 19.02 305.25 19.59 305.52 Z" class="st13"/>
					</g>
					<g id="shape84-69" v:mID="84" v:groupContext="shape" transform="translate(15.1657,-30.1327)">
						<title>工作表.84</title>
						<path d="M2.18 288.8 C1.57 288.6 0.91 288.9 0.71 289.47 C0.24 290.74 0 292.08 0 293.44 C0 300.17 5.84 305.64
									 13.02 305.64 C15.78 305.64 18.42 304.84 20.65 303.33 C21.17 302.98 21.28 302.3 20.91 301.81
									 C20.53 301.33 19.81 301.22 19.29 301.57 C17.46 302.81 15.29 303.47 13.02 303.47 C7.12 303.47
									 2.32 298.97 2.32 293.44 C2.32 292.32 2.51 291.22 2.9 290.17 C3.1 289.61 2.78 288.99 2.18 288.8
									 Z" class="st13"/>
					</g>
					<g id="shape85-71" v:mID="85" v:groupContext="shape" transform="translate(35.5218,5.68434E-14)">
						<title>工作表.85</title>
						<path d="M35.61 284.33 L32.26 283.71 C32.06 283.14 31.81 282.58 31.53 282.05 L33.42 279.38 C34.15 278.35
									 34.01 276.98 33.07 276.1 L31.52 274.65 C30.59 273.77 29.12 273.64 28.02 274.32 L25.18 276.1
									 C24.61 275.83 24.01 275.6 23.41 275.41 L22.74 272.27 C22.48 271.06 21.33 270.18 20.02 270.18
									 L17.82 270.18 C16.5 270.18 15.36 271.06 15.1 272.27 L14.43 275.41 C13.83 275.6 13.23 275.83
									 12.66 276.1 L9.82 274.32 C8.72 273.64 7.25 273.77 6.32 274.65 L4.76 276.1 C3.83 276.98 3.69
									 278.35 4.42 279.38 L6.31 282.05 C5.92 282.78 5.6 283.56 5.37 284.35 C5.19 284.93 5.55 285.53
									 6.17 285.69 C6.79 285.85 7.43 285.51 7.6 284.94 C7.85 284.09 8.21 283.28 8.67 282.51 C8.88 282.16
									 8.87 281.72 8.62 281.38 L6.35 278.18 C6.23 278.01 6.25 277.78 6.4 277.64 L7.96 276.18 C8.11
									 276.04 8.35 276.02 8.53 276.13 L11.95 278.26 C12.31 278.49 12.78 278.51 13.16 278.31 C13.97
									 277.88 14.84 277.54 15.74 277.3 C16.16 277.19 16.48 276.87 16.57 276.47 L17.37 272.7 C17.42
									 272.5 17.6 272.35 17.82 272.35 L20.02 272.35 C20.23 272.35 20.42 272.5 20.47 272.7 L21.27 276.47
									 C21.36 276.87 21.67 277.19 22.09 277.3 C23 277.54 23.87 277.88 24.68 278.31 C25.06 278.51 25.53
									 278.49 25.89 278.26 L29.31 276.13 C29.49 276.02 29.73 276.04 29.88 276.18 L31.44 277.64 C31.59
									 277.78 31.61 278.01 31.49 278.18 L29.21 281.38 C28.97 281.72 28.96 282.16 29.17 282.51 C29.63
									 283.28 29.99 284.09 30.24 284.94 C30.36 285.33 30.7 285.63 31.13 285.71 L35.15 286.46 C35.37
									 286.5 35.52 286.68 35.52 286.88 L35.52 288.94 C35.52 289.14 35.37 289.32 35.15 289.36 L31.13
									 290.12 C30.7 290.2 30.36 290.49 30.24 290.89 C29.99 291.73 29.63 292.55 29.17 293.31 C28.96
									 293.67 28.97 294.1 29.21 294.44 L31.49 297.65 C31.61 297.82 31.59 298.04 31.44 298.19 L29.88
									 299.64 C29.73 299.79 29.49 299.81 29.31 299.69 L25.89 297.56 C25.53 297.33 25.06 297.32 24.68
									 297.52 C23.86 297.95 23 298.29 22.09 298.52 C21.67 298.63 21.36 298.95 21.27 299.35 L20.46 303.13
									 C20.42 303.33 20.23 303.47 20.02 303.47 L17.82 303.47 C17.6 303.47 17.42 303.33 17.37 303.13
									 L16.57 299.35 C16.48 298.95 16.16 298.63 15.74 298.52 C14.84 298.28 13.97 297.95 13.16 297.52
									 C12.78 297.32 12.31 297.33 11.95 297.56 L8.53 299.69 C8.35 299.81 8.11 299.78 7.96 299.64 L6.4
									 298.19 C6.25 298.04 6.23 297.82 6.35 297.65 L8.62 294.44 C8.87 294.1 8.88 293.67 8.67 293.31
									 C8.21 292.55 7.85 291.73 7.6 290.89 C7.48 290.49 7.14 290.19 6.71 290.11 L2.68 289.36 C2.47
									 289.32 2.32 289.14 2.32 288.94 L2.32 286.88 C2.32 286.68 2.47 286.5 2.68 286.46 L2.93 286.42
									 C3.56 286.3 3.96 285.73 3.84 285.14 C3.71 284.55 3.1 284.17 2.48 284.29 L2.23 284.33 C0.94 284.58
									 0 285.65 0 286.88 L0 288.94 C0 290.18 0.94 291.25 2.23 291.49 L5.58 292.12 C5.78 292.69 6.03
									 293.24 6.31 293.78 L4.42 296.44 C3.69 297.47 3.83 298.85 4.76 299.72 L6.32 301.18 C7.25 302.05
									 8.72 302.19 9.82 301.5 L12.66 299.73 C13.23 299.99 13.82 300.22 14.43 300.41 L15.1 303.55 C15.36
									 304.76 16.5 305.64 17.82 305.64 L20.02 305.64 C21.33 305.64 22.48 304.76 22.74 303.55 L23.41
									 300.41 C24.01 300.22 24.61 299.99 25.18 299.73 L28.02 301.5 C29.12 302.19 30.59 302.05 31.52
									 301.18 L33.07 299.72 C34.01 298.85 34.15 297.47 33.42 296.44 L31.53 293.78 C31.81 293.24 32.06
									 292.69 32.26 292.12 L35.61 291.49 C36.9 291.25 37.84 290.18 37.84 288.94 L37.84 286.88 C37.84
									 285.65 36.9 284.58 35.61 284.33 Z" class="st13"/>
					</g>
					<g id="shape86-73" v:mID="86" v:groupContext="shape" transform="translate(47.9544,-11.651)">
						<title>工作表.86</title>
						<path d="M6.49 295.65 C8.79 295.65 10.66 297.41 10.66 299.56 C10.66 300.16 11.18 300.65 11.82 300.65 C12.45
									 300.65 12.97 300.16 12.97 299.56 C12.97 296.21 10.06 293.48 6.49 293.48 C2.91 293.48 0 296.21
									 0 299.56 C0 302.91 2.91 305.64 6.49 305.64 C7.94 305.64 9.31 305.2 10.45 304.38 C10.96 304.01
									 11.05 303.33 10.66 302.85 C10.27 302.38 9.54 302.29 9.03 302.66 C8.3 303.19 7.42 303.47 6.49
									 303.47 C4.19 303.47 2.32 301.72 2.32 299.56 C2.32 297.41 4.19 295.65 6.49 295.65 Z"
								class="st13"/>
					</g>
					<g id="shape87-75" v:mID="87" v:groupContext="shape" transform="translate(21.1288,-35.7212)">
						<title>工作表.87</title>
						<path d="M14.11 299.03 C14.11 295.38 10.95 292.41 7.06 292.41 C3.17 292.41 0 295.38 0 299.03 C0 302.67 3.17
									 305.64 7.06 305.64 C10.95 305.64 14.11 302.67 14.11 299.03 ZM2.32 299.03 C2.32 296.58 4.44 294.59
									 7.06 294.59 C9.67 294.59 11.8 296.58 11.8 299.03 C11.8 301.48 9.67 303.47 7.06 303.47 C4.44
									 303.47 2.32 301.48 2.32 299.03 Z" class="st13"/>
					</g>
				</g>
			</g>
			<g id="shape162-77" v:mID="162" v:groupContext="shape" transform="translate(8.31642,-38.5462)">
				<title>圆角矩形.162</title>
				<desc>CeRNA Group Sample Filter CeRNA Filter Value Transformaion</desc>
				<v:userDefs>
					<v:ud v:nameU="CTypeTopLeftSnip" v:prompt="" v:val="VT0(0):5"/>
					<v:ud v:nameU="CTypeTopRightSnip" v:prompt="" v:val="VT0(0):5"/>
					<v:ud v:nameU="CTypeBotLeftSnip" v:prompt="" v:val="VT0(0):5"/>
					<v:ud v:nameU="CTypeBotRightSnip" v:prompt="" v:val="VT0(0):5"/>
					<v:ud v:nameU="CornerLockHoriz" v:prompt="" v:val="VT0(1):5"/>
					<v:ud v:nameU="CornerLockVert" v:prompt="" v:val="VT0(1):5"/>
					<v:ud v:nameU="CornerLockDiag" v:prompt="" v:val="VT0(0):5"/>
					<v:ud v:nameU="TopLeftOffset" v:prompt="" v:val="VT0(0.15748031496063):24"/>
					<v:ud v:nameU="TopRightOffset" v:prompt="" v:val="VT0(0.15748031496063):24"/>
					<v:ud v:nameU="BotLeftOffset" v:prompt="" v:val="VT0(0.15748031496063):24"/>
					<v:ud v:nameU="BotRightOffset" v:prompt="" v:val="VT0(0.15748031496063):24"/>
					<v:ud v:nameU="visVersion" v:prompt="" v:val="VT0(15):26"/>
					<v:ud v:nameU="TopLeftOffset" v:prompt="" v:val="VT0(0.1816232327528):1"/>
					<v:ud v:nameU="TopRightOffset" v:prompt="" v:val="VT0(0.1816232327528):1"/>
					<v:ud v:nameU="BotLeftOffset" v:prompt="" v:val="VT0(0.1816232327528):1"/>
					<v:ud v:nameU="BotRightOffset" v:prompt="" v:val="VT0(0.1816232327528):1"/>
				</v:userDefs>
				<v:textBlock v:margins="rect(4,4,4,4)" v:tabSpace="11.3386"/>
				<v:textRect cx="65.3844" cy="271.267" width="130.77" height="68.7486"/>
				<path d="M13.08 305.64 L117.69 305.64 A13.0767 13.0767 -180 0 0 130.77 292.56 L130.77 249.97 A13.0767 13.0767 -180
							 0 0 117.69 236.89 L13.08 236.89 A13.0767 13.0767 -180 0 0 -0 249.97 L0 292.56 A13.0767 13.0767 -180
							 0 0 13.08 305.64 Z" class="st14"/>
				<text x="4" y="253.27" class="st15" v:langID="2052"><v:paragraph v:indentFirst="-18" v:indentLeft="18" v:bullet="1"/><v:tabList/><tspan
							class="st9" v:isBullet="true">·</tspan> <tspan class="st10">CeRNA Group<v:newlineChar/></tspan><tspan
							x="4" dy="1.2em" class="st9" v:isBullet="true">·</tspan> <tspan class="st10">Sample Filter<v:newlineChar/></tspan><tspan
							x="4" dy="1.2em" class="st9" v:isBullet="true">·</tspan> <tspan class="st10">CeRNA Filter<v:newlineChar/></tspan><tspan
							x="4" dy="1.2em" class="st9" v:isBullet="true">·</tspan> <tspan class="st10">Value Transformaion</tspan></text>			</g>
			<g id="shape112-88" v:mID="112" v:groupContext="shape">
				<title>圆角矩形.112</title>
				<desc>Data Processing</desc>
				<v:userDefs>
					<v:ud v:nameU="CTypeTopLeftSnip" v:prompt="" v:val="VT0(0):5"/>
					<v:ud v:nameU="CTypeTopRightSnip" v:prompt="" v:val="VT0(0):5"/>
					<v:ud v:nameU="CTypeBotLeftSnip" v:prompt="" v:val="VT0(0):5"/>
					<v:ud v:nameU="CTypeBotRightSnip" v:prompt="" v:val="VT0(0):5"/>
					<v:ud v:nameU="CornerLockHoriz" v:prompt="" v:val="VT0(1):5"/>
					<v:ud v:nameU="CornerLockVert" v:prompt="" v:val="VT0(1):5"/>
					<v:ud v:nameU="CornerLockDiag" v:prompt="" v:val="VT0(0):5"/>
					<v:ud v:nameU="TopLeftOffset" v:prompt="" v:val="VT0(0.15748031496063):24"/>
					<v:ud v:nameU="TopRightOffset" v:prompt="" v:val="VT0(0.15748031496063):24"/>
					<v:ud v:nameU="BotLeftOffset" v:prompt="" v:val="VT0(0.15748031496063):24"/>
					<v:ud v:nameU="BotRightOffset" v:prompt="" v:val="VT0(0.15748031496063):24"/>
					<v:ud v:nameU="visVersion" v:prompt="" v:val="VT0(15):26"/>
					<v:ud v:nameU="TopLeftOffset" v:prompt="" v:val="VT0(0.20472440944882):1"/>
					<v:ud v:nameU="TopRightOffset" v:prompt="" v:val="VT0(0.20472440944882):1"/>
					<v:ud v:nameU="BotLeftOffset" v:prompt="" v:val="VT0(0.20472440944882):1"/>
					<v:ud v:nameU="BotRightOffset" v:prompt="" v:val="VT0(0.20472440944882):1"/>
				</v:userDefs>
				<v:textBlock v:margins="rect(4,4,4,4)" v:tabSpace="42.5197"/>
				<v:textRect cx="73.7008" cy="284.382" width="147.41" height="42.5197"/>
				<path d="M14.74 305.64 L132.66 305.64 A14.7399 14.7399 -180 0 0 147.4 290.9 L147.4 277.86 A14.7399 14.7399 -180 0
							 0 132.66 263.12 L14.74 263.12 A14.7399 14.7399 -180 0 0 0 277.86 L0 290.9 A14.7399 14.7399 -180 0 0
							 14.74 305.64 Z" class="st16"/>
				<text x="25.68" y="288.58" class="st12" v:langID="2052"><v:paragraph v:horizAlign="1"/><v:tabList/>Data Processing</text>			</g>
		</g>
		<g id="group197-91" transform="translate(329.162,-60.4786)" v:mID="197" v:groupContext="group">
			<title>工作表.197</title>
			<g id="group70-92" transform="translate(37.0205,-116.619)" v:mID="70" v:groupContext="group">
				<title>工作表.70</title>
				<g id="shape71-93" v:mID="71" v:groupContext="shape">
					<title>工作表.71</title>
					<path d="M1.22 305.64 L72.14 305.64 A1.22264 1.14578 -180 0 0 73.36 304.5 L73.36 285.46 A7.05732 6.61364 -180
								 0 0 63.83 279.27 L60.47 280.45 A3.69034 3.45834 0 0 1 56.24 279.29 A6.14523 5.75889 -180 0 0 51.35
								 277 L49.14 277 L51.23 272.91 A1.22273 1.14586 -180 0 0 51.22 271.9 L46.33 262.73 A1.22256 1.1457
								 -180 0 0 45.24 262.1 L40.35 262.1 L40.35 256.37 A1.22264 1.14578 -180 0 0 41.57 255.23 L41.57 241.48
								 A4.8907 4.58324 -180 1 0 31.79 241.48 L31.79 247.41 L30.99 247.56 A17.0593 15.9869 0 0 1 22.99 247.26
								 A12.7284 11.9282 -180 0 0 13.78 248.06 A6.23575 5.84372 0 0 1 8.23 248.06 A8.69638 8.14966 -180
								 0 0 4.36 247.21 L1.22 247.21 A1.22264 1.14578 -180 0 0 -0 248.35 L0 304.5 A1.22264 1.14578 -180
								 0 0 1.22 305.64 ZM39.13 254.08 L34.23 254.08 L34.23 243.77 L39.13 243.77 L39.13 254.08 ZM33.01 257.52
								 L33.01 262.1 L28.12 262.1 A1.22256 1.1457 -180 0 0 27.03 262.73 L22.48 271.27 L22.01 271.27 L22.01
								 257.52 L33.01 257.52 ZM12.23 287.31 L12.23 273.56 L22.46 273.56 L29.41 287.31 L12.23 287.31 ZM2.45
								 287.31 L2.45 273.56 L9.78 273.56 L9.78 287.31 L2.45 287.31 ZM19.56 271.27 L2.45 271.27 L2.45 257.52
								 L19.56 257.52 L19.56 271.27 ZM2.45 289.6 L19.56 289.6 L19.56 303.35 L2.45 303.35 L2.45 289.6 ZM22.01
								 289.6 L30.57 289.6 L32.11 292.65 A4.99392 4.67997 -180 0 0 41.21 292.49 L42.69 289.6 L51.35 289.6
								 L51.35 303.35 L22.01 303.35 L22.01 289.6 ZM70.92 303.35 L53.8 303.35 L53.8 289.6 L70.92 289.6 L70.92
								 303.35 ZM51.35 279.29 A3.68837 3.45649 0 0 1 54.29 280.66 A6.14953 5.76293 -180 0 0 61.33 282.59
								 L64.68 281.41 A4.61193 4.32199 0 0 1 70.92 285.46 L70.92 287.31 L43.86 287.31 L47.97 279.29 L51.35
								 279.29 ZM44.48 264.39 L48.77 272.42 L38.99 291.53 C38.99 291.54 38.98 291.56 38.97 291.58 A2.54858
								 2.38835 0 0 1 34.32 291.67 L24.59 272.43 L28.88 264.39 L33.01 264.39 L33.01 270.12 A3.66803 3.43743
								 -180 1 0 40.35 270.12 L40.35 264.39 L44.48 264.39 ZM37.9 270.12 A1.22268 1.14581 0 0 1 35.46 270.12
								 L35.46 256.37 L37.9 256.37 L37.9 270.12 ZM36.68 239.18 A2.44809 2.29419 0 0 1 39.13 241.48 L39.13
								 241.48 L34.23 241.48 L34.23 241.48 A2.44809 2.29419 0 0 1 36.68 239.18 L36.68 239.18 ZM4.36 249.5
								 A6.23848 5.84628 0 0 1 7.14 250.11 A8.69247 8.146 -180 0 0 14.87 250.11 A10.2892 9.64237 0 0 1 22.32
								 249.46 A19.5154 18.2885 -180 0 0 31.47 249.81 L31.79 249.75 L31.79 255.23 L2.45 255.23 L2.45 249.5
								 L4.36 249.5 Z" class="st17"/>
				</g>
			</g>
			<g id="shape163-95" v:mID="163" v:groupContext="shape" transform="translate(17.0079,-38.5462)">
				<title>圆角矩形.163</title>
				<desc>PCC CMI LA ...</desc>
				<v:userDefs>
					<v:ud v:nameU="CTypeTopLeftSnip" v:prompt="" v:val="VT0(0):5"/>
					<v:ud v:nameU="CTypeTopRightSnip" v:prompt="" v:val="VT0(0):5"/>
					<v:ud v:nameU="CTypeBotLeftSnip" v:prompt="" v:val="VT0(0):5"/>
					<v:ud v:nameU="CTypeBotRightSnip" v:prompt="" v:val="VT0(0):5"/>
					<v:ud v:nameU="CornerLockHoriz" v:prompt="" v:val="VT0(1):5"/>
					<v:ud v:nameU="CornerLockVert" v:prompt="" v:val="VT0(1):5"/>
					<v:ud v:nameU="CornerLockDiag" v:prompt="" v:val="VT0(0):5"/>
					<v:ud v:nameU="TopLeftOffset" v:prompt="" v:val="VT0(0.15748031496063):24"/>
					<v:ud v:nameU="TopRightOffset" v:prompt="" v:val="VT0(0.15748031496063):24"/>
					<v:ud v:nameU="BotLeftOffset" v:prompt="" v:val="VT0(0.15748031496063):24"/>
					<v:ud v:nameU="BotRightOffset" v:prompt="" v:val="VT0(0.15748031496063):24"/>
					<v:ud v:nameU="visVersion" v:prompt="" v:val="VT0(15):26"/>
				</v:userDefs>
				<v:textBlock v:margins="rect(4,4,4,4)" v:tabSpace="11.3386"/>
				<v:textRect cx="56.6929" cy="271.267" width="113.39" height="68.7486"/>
				<path d="M11.34 305.64 L102.05 305.64 A11.3384 11.3384 -180 0 0 113.39 294.3 L113.39 248.23 A11.3384 11.3384 -180
							 0 0 102.05 236.89 L11.34 236.89 A11.3384 11.3384 -180 0 0 0 248.23 L0 294.3 A11.3384 11.3384 -180 0
							 0 11.34 305.64 Z" class="st18"/>
				<text x="4" y="253.27" class="st19" v:langID="2052"><v:paragraph v:indentFirst="-18" v:indentLeft="18" v:bullet="1"/><v:tabList/><tspan
							class="st9" v:isBullet="true">·</tspan> <tspan class="st10">PCC<v:newlineChar/></tspan><tspan x="4"
							dy="1.2em" class="st9" v:isBullet="true">·</tspan> <tspan class="st10">CMI<v:newlineChar/></tspan><tspan
							x="4" dy="1.2em" class="st9" v:isBullet="true">·</tspan> <tspan class="st10">LA<v:newlineChar/></tspan><tspan
							x="4" dy="1.2em" class="st9" v:isBullet="true">·</tspan> <tspan class="st10">...</tspan></text>			</g>
			<g id="shape113-106" v:mID="113" v:groupContext="shape">
				<title>圆角矩形.113</title>
				<desc>Network Construction</desc>
				<v:userDefs>
					<v:ud v:nameU="CTypeTopLeftSnip" v:prompt="" v:val="VT0(0):5"/>
					<v:ud v:nameU="CTypeTopRightSnip" v:prompt="" v:val="VT0(0):5"/>
					<v:ud v:nameU="CTypeBotLeftSnip" v:prompt="" v:val="VT0(0):5"/>
					<v:ud v:nameU="CTypeBotRightSnip" v:prompt="" v:val="VT0(0):5"/>
					<v:ud v:nameU="CornerLockHoriz" v:prompt="" v:val="VT0(1):5"/>
					<v:ud v:nameU="CornerLockVert" v:prompt="" v:val="VT0(1):5"/>
					<v:ud v:nameU="CornerLockDiag" v:prompt="" v:val="VT0(0):5"/>
					<v:ud v:nameU="TopLeftOffset" v:prompt="" v:val="VT0(0.15748031496063):24"/>
					<v:ud v:nameU="TopRightOffset" v:prompt="" v:val="VT0(0.15748031496063):24"/>
					<v:ud v:nameU="BotLeftOffset" v:prompt="" v:val="VT0(0.15748031496063):24"/>
					<v:ud v:nameU="BotRightOffset" v:prompt="" v:val="VT0(0.15748031496063):24"/>
					<v:ud v:nameU="visVersion" v:prompt="" v:val="VT0(15):26"/>
					<v:ud v:nameU="TopLeftOffset" v:prompt="" v:val="VT0(0.20472440944882):1"/>
					<v:ud v:nameU="TopRightOffset" v:prompt="" v:val="VT0(0.20472440944882):1"/>
					<v:ud v:nameU="BotLeftOffset" v:prompt="" v:val="VT0(0.20472440944882):1"/>
					<v:ud v:nameU="BotRightOffset" v:prompt="" v:val="VT0(0.20472440944882):1"/>
				</v:userDefs>
				<v:textBlock v:margins="rect(4,4,4,4)" v:tabSpace="42.5197"/>
				<v:textRect cx="73.7008" cy="284.382" width="147.41" height="42.5197"/>
				<path d="M14.74 305.64 L132.66 305.64 A14.7399 14.7399 -180 0 0 147.4 290.9 L147.4 277.86 A14.7399 14.7399 -180 0
							 0 132.66 263.12 L14.74 263.12 A14.7399 14.7399 -180 0 0 0 277.86 L0 290.9 A14.7399 14.7399 -180 0 0
							 14.74 305.64 Z" class="st20"/>
				<text x="6.62" y="288.58" class="st12" v:langID="2052"><v:paragraph v:horizAlign="1"/><v:tabList/>Network Construction</text>			</g>
		</g>
		<g id="group199-109" transform="translate(493.368,-60.4786)" v:mID="199" v:groupContext="group">
			<title>工作表.199</title>
			<g id="group104-110" transform="translate(37.0205,-116.619)" v:mID="104" v:groupContext="group">
				<title>工作表.104</title>
				<g id="shape105-111" v:mID="105" v:groupContext="shape">
					<title>工作表.105</title>
					<path d="M65.36 236.89 C60.94 236.89 57.35 240.26 57.35 244.39 C57.35 245.69 57.71 246.9 58.32 247.97 L45.21
								 260.25 C43.41 258.94 41.14 258.14 38.68 258.14 C36.22 258.14 33.96 258.94 32.15 260.25 L21.92 250.67
								 C22.39 249.92 22.68 249.07 22.68 248.14 C22.68 245.39 20.28 243.14 17.34 243.14 C14.4 243.14 12
								 245.39 12 248.14 C12 250.9 14.4 253.14 17.34 253.14 C18.33 253.14 19.24 252.87 20.03 252.43 L30.26
								 262.02 C28.86 263.72 28.01 265.83 28.01 268.14 C28.01 270.45 28.86 272.57 30.26 274.26 L13.37 290.09
								 C11.95 288.89 10.07 288.14 8 288.14 C3.59 288.14 0 291.51 0 295.64 C0 299.78 3.59 303.14 8 303.14
								 C12.42 303.14 16.01 299.78 16.01 295.64 C16.01 294.35 15.66 293.13 15.04 292.07 L32.15 276.03 C33.62
								 277.11 35.4 277.83 37.35 278.05 L37.35 290.75 C33.57 291.35 30.68 294.43 30.68 298.14 C30.68 302.28
								 34.27 305.64 38.68 305.64 C43.1 305.64 46.69 302.28 46.69 298.14 C46.69 294.43 43.79 291.35 40.02
								 290.75 L40.02 278.05 C41.96 277.83 43.74 277.11 45.22 276.03 L55.44 285.62 C54.97 286.36 54.69 287.22
								 54.69 288.14 C54.69 290.9 57.08 293.14 60.02 293.14 C62.96 293.14 65.36 290.9 65.36 288.14 C65.36
								 285.38 62.96 283.14 60.02 283.14 C59.04 283.14 58.12 283.41 57.33 283.85 L47.1 274.26 C48.51 272.57
								 49.35 270.45 49.35 268.14 C49.35 265.83 48.51 263.72 47.1 262.02 L59.99 249.94 C61.41 251.15 63.29
								 251.89 65.36 251.89 C69.77 251.89 73.36 248.53 73.36 244.39 C73.36 240.26 69.77 236.89 65.36 236.89
								 ZM14.67 248.14 C14.67 246.76 15.87 245.64 17.34 245.64 C18.81 245.64 20.01 246.76 20.01 248.14 C20.01
								 249.52 18.81 250.64 17.34 250.64 C15.87 250.64 14.67 249.52 14.67 248.14 ZM8 300.64 C5.06 300.64
								 2.67 298.4 2.67 295.64 C2.67 292.88 5.06 290.64 8 290.64 C10.95 290.64 13.34 292.88 13.34 295.64
								 C13.34 298.4 10.95 300.64 8 300.64 ZM44.02 298.14 C44.02 300.9 41.62 303.14 38.68 303.14 C35.74
								 303.14 33.35 300.9 33.35 298.14 C33.35 295.38 35.74 293.14 38.68 293.14 C41.62 293.14 44.02 295.38
								 44.02 298.14 ZM38.68 275.64 C34.27 275.64 30.68 272.28 30.68 268.14 C30.68 264.01 34.27 260.64 38.68
								 260.64 C43.09 260.64 46.68 264.01 46.68 268.14 C46.68 272.28 43.09 275.64 38.68 275.64 ZM62.69 288.14
								 C62.69 289.52 61.49 290.64 60.02 290.64 C58.55 290.64 57.35 289.52 57.35 288.14 C57.35 286.76 58.55
								 285.64 60.02 285.64 C61.49 285.64 62.69 286.76 62.69 288.14 ZM65.36 249.39 C62.42 249.39 60.02 247.15
								 60.02 244.39 C60.02 241.64 62.42 239.39 65.36 239.39 C68.3 239.39 70.69 241.64 70.69 244.39 C70.69
								 247.15 68.3 249.39 65.36 249.39 Z" class="st21"/>
				</g>
			</g>
			<g id="shape114-113" v:mID="114" v:groupContext="shape">
				<title>圆角矩形.114</title>
				<desc>Network Visualization</desc>
				<v:userDefs>
					<v:ud v:nameU="CTypeTopLeftSnip" v:prompt="" v:val="VT0(0):5"/>
					<v:ud v:nameU="CTypeTopRightSnip" v:prompt="" v:val="VT0(0):5"/>
					<v:ud v:nameU="CTypeBotLeftSnip" v:prompt="" v:val="VT0(0):5"/>
					<v:ud v:nameU="CTypeBotRightSnip" v:prompt="" v:val="VT0(0):5"/>
					<v:ud v:nameU="CornerLockHoriz" v:prompt="" v:val="VT0(1):5"/>
					<v:ud v:nameU="CornerLockVert" v:prompt="" v:val="VT0(1):5"/>
					<v:ud v:nameU="CornerLockDiag" v:prompt="" v:val="VT0(0):5"/>
					<v:ud v:nameU="TopLeftOffset" v:prompt="" v:val="VT0(0.15748031496063):24"/>
					<v:ud v:nameU="TopRightOffset" v:prompt="" v:val="VT0(0.15748031496063):24"/>
					<v:ud v:nameU="BotLeftOffset" v:prompt="" v:val="VT0(0.15748031496063):24"/>
					<v:ud v:nameU="BotRightOffset" v:prompt="" v:val="VT0(0.15748031496063):24"/>
					<v:ud v:nameU="visVersion" v:prompt="" v:val="VT0(15):26"/>
					<v:ud v:nameU="TopLeftOffset" v:prompt="" v:val="VT0(0.20472440944882):1"/>
					<v:ud v:nameU="TopRightOffset" v:prompt="" v:val="VT0(0.20472440944882):1"/>
					<v:ud v:nameU="BotLeftOffset" v:prompt="" v:val="VT0(0.20472440944882):1"/>
					<v:ud v:nameU="BotRightOffset" v:prompt="" v:val="VT0(0.20472440944882):1"/>
				</v:userDefs>
				<v:textBlock v:margins="rect(4,4,4,4)" v:tabSpace="42.5197"/>
				<v:textRect cx="73.7008" cy="284.382" width="147.41" height="42.5197"/>
				<path d="M14.74 305.64 L132.66 305.64 A14.7399 14.7399 -180 0 0 147.4 290.9 L147.4 277.86 A14.7399 14.7399 -180 0
							 0 132.66 263.12 L14.74 263.12 A14.7399 14.7399 -180 0 0 0 277.86 L0 290.9 A14.7399 14.7399 -180 0 0
							 14.74 305.64 Z" class="st22"/>
				<text x="6.62" y="288.58" class="st12" v:langID="2052"><v:paragraph v:horizAlign="1"/><v:tabList/>Network Visualization</text>			</g>
		</g>
		<g id="shape202-116" v:mID="202" v:groupContext="shape" transform="translate(257.446,-252.826)">
			<title>工作表.202</title>
			<desc>CeNet Omnibus</desc>
			<v:textBlock v:margins="rect(4,4,4,4)" v:tabSpace="42.5197"/>
			<v:textRect cx="145.417" cy="279.421" width="290.84" height="52.4409"/>
			<rect x="0" y="253.201" width="290.835" height="52.4409" class="st23"/>
			<text x="63.08" y="286.62" class="st24" v:langID="2052"><v:paragraph v:horizAlign="1"/><v:tabList/>CeNet Omnibus</text>		</g>
		<g id="group206-119" transform="translate(657.574,-59.4762)" v:mID="206" v:groupContext="group">
			<title>工作表.206</title>
			<g id="shape165-120" v:mID="165" v:groupContext="shape" transform="translate(8.31642,-38.5462)">
				<title>圆角矩形.165</title>
				<desc>Topological Property Module Enrichment Survival Analysis</desc>
				<v:userDefs>
					<v:ud v:nameU="CTypeTopLeftSnip" v:prompt="" v:val="VT0(0):5"/>
					<v:ud v:nameU="CTypeTopRightSnip" v:prompt="" v:val="VT0(0):5"/>
					<v:ud v:nameU="CTypeBotLeftSnip" v:prompt="" v:val="VT0(0):5"/>
					<v:ud v:nameU="CTypeBotRightSnip" v:prompt="" v:val="VT0(0):5"/>
					<v:ud v:nameU="CornerLockHoriz" v:prompt="" v:val="VT0(1):5"/>
					<v:ud v:nameU="CornerLockVert" v:prompt="" v:val="VT0(1):5"/>
					<v:ud v:nameU="CornerLockDiag" v:prompt="" v:val="VT0(0):5"/>
					<v:ud v:nameU="TopLeftOffset" v:prompt="" v:val="VT0(0.15748031496063):24"/>
					<v:ud v:nameU="TopRightOffset" v:prompt="" v:val="VT0(0.15748031496063):24"/>
					<v:ud v:nameU="BotLeftOffset" v:prompt="" v:val="VT0(0.15748031496063):24"/>
					<v:ud v:nameU="BotRightOffset" v:prompt="" v:val="VT0(0.15748031496063):24"/>
					<v:ud v:nameU="visVersion" v:prompt="" v:val="VT0(15):26"/>
					<v:ud v:nameU="TopLeftOffset" v:prompt="" v:val="VT0(0.1816232327528):1"/>
					<v:ud v:nameU="TopRightOffset" v:prompt="" v:val="VT0(0.1816232327528):1"/>
					<v:ud v:nameU="BotLeftOffset" v:prompt="" v:val="VT0(0.1816232327528):1"/>
					<v:ud v:nameU="BotRightOffset" v:prompt="" v:val="VT0(0.1816232327528):1"/>
				</v:userDefs>
				<v:textBlock v:margins="rect(4,4,4,4)" v:tabSpace="11.3386"/>
				<v:textRect cx="65.3844" cy="271.267" width="130.77" height="68.7486"/>
				<path d="M13.08 305.64 L117.69 305.64 A13.0767 13.0767 -180 0 0 130.77 292.56 L130.77 249.97 A13.0767 13.0767 -180
							 0 0 117.69 236.89 L13.08 236.89 A13.0767 13.0767 -180 0 0 -0 249.97 L0 292.56 A13.0767 13.0767 -180
							 0 0 13.08 305.64 Z" class="st25"/>
				<text x="4" y="253.27" class="st26" v:langID="2052"><v:paragraph v:indentFirst="-18" v:indentLeft="18" v:bullet="1"/><v:tabList/><tspan
							class="st9" v:isBullet="true">·</tspan> <tspan class="st10">Topological Property<v:newlineChar/></tspan><tspan
							x="4" dy="1.2em" class="st9" v:isBullet="true">·</tspan> <tspan class="st10">Module<v:newlineChar/></tspan><tspan
							x="4" dy="1.2em" class="st9" v:isBullet="true">·</tspan> <tspan class="st10">Enrichment<v:newlineChar/></tspan><tspan
							x="4" dy="1.2em" class="st9" v:isBullet="true">·</tspan> <tspan class="st10">Survival Analysis</tspan></text>			</g>
			<g id="shape115-131" v:mID="115" v:groupContext="shape">
				<title>圆角矩形.115</title>
				<desc>Network Analysis</desc>
				<v:userDefs>
					<v:ud v:nameU="CTypeTopLeftSnip" v:prompt="" v:val="VT0(0):5"/>
					<v:ud v:nameU="CTypeTopRightSnip" v:prompt="" v:val="VT0(0):5"/>
					<v:ud v:nameU="CTypeBotLeftSnip" v:prompt="" v:val="VT0(0):5"/>
					<v:ud v:nameU="CTypeBotRightSnip" v:prompt="" v:val="VT0(0):5"/>
					<v:ud v:nameU="CornerLockHoriz" v:prompt="" v:val="VT0(1):5"/>
					<v:ud v:nameU="CornerLockVert" v:prompt="" v:val="VT0(1):5"/>
					<v:ud v:nameU="CornerLockDiag" v:prompt="" v:val="VT0(0):5"/>
					<v:ud v:nameU="TopLeftOffset" v:prompt="" v:val="VT0(0.15748031496063):24"/>
					<v:ud v:nameU="TopRightOffset" v:prompt="" v:val="VT0(0.15748031496063):24"/>
					<v:ud v:nameU="BotLeftOffset" v:prompt="" v:val="VT0(0.15748031496063):24"/>
					<v:ud v:nameU="BotRightOffset" v:prompt="" v:val="VT0(0.15748031496063):24"/>
					<v:ud v:nameU="visVersion" v:prompt="" v:val="VT0(15):26"/>
					<v:ud v:nameU="TopLeftOffset" v:prompt="" v:val="VT0(0.20472440944882):1"/>
					<v:ud v:nameU="TopRightOffset" v:prompt="" v:val="VT0(0.20472440944882):1"/>
					<v:ud v:nameU="BotLeftOffset" v:prompt="" v:val="VT0(0.20472440944882):1"/>
					<v:ud v:nameU="BotRightOffset" v:prompt="" v:val="VT0(0.20472440944882):1"/>
				</v:userDefs>
				<v:textBlock v:margins="rect(4,4,4,4)" v:tabSpace="42.5197"/>
				<v:textRect cx="73.7008" cy="284.382" width="147.41" height="42.5197"/>
				<path d="M14.74 305.64 L132.66 305.64 A14.7399 14.7399 -180 0 0 147.4 290.9 L147.4 277.86 A14.7399 14.7399 -180 0
							 0 132.66 263.12 L14.74 263.12 A14.7399 14.7399 -180 0 0 0 277.86 L0 290.9 A14.7399 14.7399 -180 0 0
							 14.74 305.64 Z" class="st27"/>
				<text x="20.62" y="288.58" class="st12" v:langID="2052"><v:paragraph v:horizAlign="1"/><v:tabList/>Network Analysis</text>			</g>
			<g id="group185-134" transform="translate(37.0205,-118.115)" v:mID="185" v:groupContext="group">
				<title>工作表.185</title>
				<g id="shape186-135" v:mID="186" v:groupContext="shape">
					<title>工作表.186</title>
					<path d="M6.11 305.64 L23.23 305.64 A6.12383 6.12383 -180 0 0 29.22 300.75 L72.14 300.75 L72.14 298.31 L68.47
								 298.31 L68.47 246.95 A1.22274 1.22274 -180 0 0 67.25 245.73 L57.47 245.73 A1.22274 1.22274 -180
								 0 0 56.24 246.95 L56.24 257.96 L47.68 257.96 A1.22274 1.22274 -180 0 0 46.46 259.18 L46.46 270.18
								 L37.9 270.18 A1.22274 1.22274 -180 0 0 36.68 271.41 L36.68 282.41 L29.34 282.41 L29.34 273.85 A6.11353
								 6.11353 -180 0 0 26.47 268.67 L31.07 264.07 L35.46 264.07 A1.22274 1.22274 -180 0 0 36.68 262.85
								 L36.68 258.46 L43.3 251.84 L47.68 251.84 A1.22274 1.22274 -180 0 0 48.91 250.62 L48.91 246.24 L55.53
								 239.62 L59.91 239.62 A1.22274 1.22274 -180 0 0 61.13 238.39 L61.13 237.17 L68.47 237.17 L68.47 234.73
								 L61.13 234.73 L61.13 233.5 A1.22274 1.22274 -180 0 0 59.91 232.28 L55.02 232.28 A1.22274 1.22274
								 -180 0 0 53.8 233.5 L53.8 237.89 L47.18 244.51 L42.79 244.51 A1.22274 1.22274 -180 0 0 41.57 245.73
								 L41.57 250.11 L34.95 256.73 L30.57 256.73 A1.22274 1.22274 -180 0 0 29.34 257.96 L29.34 262.34 L23.91
								 267.78 A6.15027 6.15027 -180 0 0 23.23 267.74 L6.11 267.74 A6.12038 6.12038 -180 0 0 -0 273.85 L0
								 299.53 A6.12038 6.12038 -180 0 0 6.11 305.64 ZM58.69 248.18 L66.02 248.18 L66.02 298.31 L58.69 298.31
								 L58.69 248.18 ZM48.91 260.4 L56.24 260.4 L56.24 298.31 L48.91 298.31 L48.91 260.4 ZM46.46 272.63
								 L46.46 298.31 L39.13 298.31 L39.13 272.63 L46.46 272.63 ZM36.68 284.86 L36.68 298.31 L29.34 298.31
								 L29.34 284.86 L36.68 284.86 ZM56.24 234.73 L58.69 234.73 L58.69 237.17 L56.24 237.17 L56.24 234.73
								 ZM44.02 246.95 L46.46 246.95 L46.46 249.4 L44.02 249.4 L44.02 246.95 ZM31.79 259.18 L34.23 259.18
								 L34.23 261.63 L31.79 261.63 L31.79 259.18 ZM2.45 273.85 A3.67223 3.67223 0 0 1 6.11 270.18 L23.23
								 270.18 A3.67223 3.67223 0 0 1 26.9 273.85 L26.9 299.53 A3.67223 3.67223 0 0 1 23.23 303.2 L6.11
								 303.2 A3.67223 3.67223 0 0 1 2.45 299.53 L2.45 273.85 Z" class="st28"/>
				</g>
				<g id="shape187-137" v:mID="187" v:groupContext="shape" transform="translate(4.8907,-24.4535)">
					<title>工作表.187</title>
					<path d="M1.22 305.64 L18.34 305.64 A1.22274 1.22274 -180 0 0 19.56 304.42 L19.56 298.31 A1.22274 1.22274 -180
								 0 0 18.34 297.08 L1.22 297.08 A1.22274 1.22274 -180 0 0 -0 298.31 L0 304.42 A1.22274 1.22274 -180
								 0 0 1.22 305.64 ZM2.45 299.53 L17.12 299.53 L17.12 303.2 L2.45 303.2 L2.45 299.53 Z" class="st28"/>
				</g>
				<g id="shape188-139" v:mID="188" v:groupContext="shape" transform="translate(6.11338,-4.8907)">
					<title>工作表.188</title>
					<path d="M15.89 288.52 L1.22 288.52 A1.22274 1.22274 -180 0 0 -0 289.75 L0 304.42 A1.22274 1.22274 -180 0 0 1.22
								 305.64 L15.89 305.64 A1.22274 1.22274 -180 0 0 17.12 304.42 L17.12 289.75 A1.22274 1.22274 -180
								 0 0 15.89 288.52 ZM2.45 290.97 L7.34 290.97 L7.34 295.86 L2.45 295.86 L2.45 290.97 ZM2.45 298.31
								 L7.34 298.31 L7.34 303.2 L2.45 303.2 L2.45 298.31 ZM14.67 303.2 L9.78 303.2 L9.78 290.97 L14.67
								 290.97 L14.67 303.2 Z" class="st28"/>
				</g>
				<g id="shape189-141" v:mID="189" v:groupContext="shape" transform="translate(50.1297,0)">
					<title>工作表.189</title>
					<rect x="0" y="303.196" width="4.8907" height="2.44535" class="st28"/>
				</g>
				<g id="shape190-143" v:mID="190" v:groupContext="shape" transform="translate(40.3483,0)">
					<title>工作表.190</title>
					<rect x="0" y="303.196" width="4.8907" height="2.44535" class="st28"/>
				</g>
				<g id="shape191-145" v:mID="191" v:groupContext="shape" transform="translate(30.5669,0)">
					<title>工作表.191</title>
					<rect x="0" y="303.196" width="4.8907" height="2.44535" class="st28"/>
				</g>
				<g id="shape192-147" v:mID="192" v:groupContext="shape" transform="translate(59.9111,0)">
					<title>工作表.192</title>
					<rect x="0" y="303.196" width="4.8907" height="2.44535" class="st28"/>
				</g>
				<g id="shape193-149" v:mID="193" v:groupContext="shape" transform="translate(70.9152,-68.4698)">
					<title>工作表.193</title>
					<rect x="0" y="303.196" width="2.44535" height="2.44535" class="st28"/>
				</g>
			</g>
		</g>
	</g>
</svg>
